<svg width="21" height="22" viewBox="0 0 21 22" fill="none" xmlns="http://www.w3.org/2000/svg">
<path fill-rule="evenodd" clip-rule="evenodd" d="M19.6823 6.30344C18.0997 2.49576 14.3915 0.0111601 10.2748 0.000143264C5.83802 -0.023266 1.89296 2.82416 0.509924 7.04813C-0.873108 11.2721 0.621841 15.9076 4.21024 18.5221C7.79863 21.1366 12.6607 21.1327 16.2449 18.5125L19.4409 21.7146C19.7658 22.0397 20.2922 22.0397 20.6171 21.7146C20.9417 21.389 20.9417 20.8616 20.6171 20.536L17.5211 17.434C20.4131 14.4985 21.265 10.1111 19.6823 6.30344ZM18.1985 13.5302C16.8697 16.7386 13.7418 18.8283 10.2748 18.8238V18.7793C5.56938 18.7733 1.74953 14.9659 1.71906 10.2514C1.71457 6.77769 3.80017 3.64373 7.00238 2.31231C10.2046 0.980903 13.892 1.71456 16.3435 4.17085C18.7951 6.62714 19.5273 10.3217 18.1985 13.5302Z" fill="black"/>
</svg>
